<svg xmlns="http://www.w3.org/2000/svg" width="199.719" height="29.158" viewBox="0 0 199.719 29.158"><defs><clipPath id="a"><path fill="none" clip-rule="evenodd" d="M194.696 26.7v.312h.793v2.145h.33v-2.145h.792V26.7h-1.916z"/></clipPath><clipPath id="b"><path fill="none" d="M-120-1998.66h1440v3576H-120z"/></clipPath><clipPath id="c"><path fill="none" clip-rule="evenodd" d="M199.008 26.7l-.775 1.86h-.014l-.782-1.86h-.496v2.458h.332v-2.02h.01l.828 2.02h.22l.834-2.02h.005v2.02h.336v-2.46h-.498z"/></clipPath><clipPath id="d"><path d="M181.887 15.884a12.5 12.5 0 0 1 1.868 6.595 15.576 15.576 0 0 1 1.532-6.758 15.593 15.593 0 0 0-1.866-2.975 18.592 18.592 0 0 0-1.533 3.137" fill="none" clip-rule="evenodd"/></clipPath><clipPath id="e"><path d="M185.287 10.2a18.6 18.6 0 0 1 1.867 2.546 15.615 15.615 0 0 1 10.517-5.8 14.55 14.55 0 0 0-2.18-2.752 18.682 18.682 0 0 0-10.2 6.01" fill="none" clip-rule="evenodd"/></clipPath><clipPath id="f"><path d="M188.688 15.884a18.624 18.624 0 0 1 1.2 6.595 9.5 9.5 0 0 1 9.5-9.5h.333a14.315 14.315 0 0 0-.66-3.062 12.56 12.56 0 0 0-10.37 5.966" fill="none" clip-rule="evenodd"/></clipPath><clipPath id="g"><path d="M192.95 22.48v4.357a14.5 14.5 0 0 0 6.768-10.794h-.333a6.435 6.435 0 0 0-6.435 6.435" fill="none" clip-rule="evenodd"/></clipPath><clipPath id="h"><path d="M186.82 22.48a12.523 12.523 0 0 1 1.867-6.596 18.43 18.43 0 0 0-1.533-3.137 15.735 15.735 0 0 0-1.868 2.975 15.56 15.56 0 0 1 1.533 6.757" fill="none" clip-rule="evenodd"/></clipPath><clipPath id="i"><path d="M183.42 12.747a18.666 18.666 0 0 1 1.867-2.546 18.676 18.676 0 0 0-10.2-6.01 14.622 14.622 0 0 0-2.187 2.753 15.615 15.615 0 0 1 10.517 5.8" fill="none" clip-rule="evenodd"/></clipPath><clipPath id="j"><path d="M183.42 12.747a15.593 15.593 0 0 1 1.867 2.975 15.7 15.7 0 0 1 1.868-2.975 18.615 18.615 0 0 0-1.868-2.546 18.666 18.666 0 0 0-1.866 2.547" fill="none" clip-rule="evenodd"/></clipPath><clipPath id="k"><path d="M188.688 15.884a12.52 12.52 0 0 0-1.867 6.595v6.463a14.383 14.383 0 0 0 3.065-.663v-5.8a18.624 18.624 0 0 0-1.2-6.595" fill="none" clip-rule="evenodd"/></clipPath><clipPath id="l"><path d="M180.69 22.48a18.64 18.64 0 0 1 1.2-6.596 12.56 12.56 0 0 0-10.368-5.966 14.407 14.407 0 0 0-.662 3.06h.334a9.5 9.5 0 0 1 9.5 9.5" fill="none" clip-rule="evenodd"/></clipPath><clipPath id="m"><path d="M181.887 15.884a18.64 18.64 0 0 0-1.2 6.595v5.8a14.39 14.39 0 0 0 3.065.662V22.48a12.5 12.5 0 0 0-1.868-6.596" fill="none" clip-rule="evenodd"/></clipPath><clipPath id="n"><path d="M171.19 16.044h-.332a14.51 14.51 0 0 0 6.768 10.794v-4.36a6.436 6.436 0 0 0-6.435-6.434" fill="none" clip-rule="evenodd"/></clipPath><clipPath id="o"><path fill="none" clip-rule="evenodd" d="M0 0h199.72v29.158H0"/></clipPath><clipPath id="p"><path fill="none" d="M182-.66h7v7h-7z"/></clipPath><clipPath id="q"><path d="M188.3 3.014A3.015 3.015 0 1 1 185.288 0a3.015 3.015 0 0 1 3.012 3.014" fill="none" clip-rule="evenodd"/></clipPath><clipPath id="r"><path fill="none" d="M0-.66h200v30H0z"/></clipPath><clipPath id="s"><path fill="none" d="M0 0h199.72v29.158H0z"/></clipPath><clipPath id="t"><path fill="none" d="M0 1.34h166v27H0z"/></clipPath><clipPath id="u"><path fill="none" d="M25.938 2.302h3.036v25.503h-3.036z"/></clipPath><clipPath id="v"><path fill="none" d="M32.347 2.302h3.036v25.503h-3.036z"/></clipPath><clipPath id="w"><path fill="none" d="M38.757 11.815h3.035v15.99h-3.035z"/></clipPath><clipPath id="x"><path d="M44.93 11.815h3.036v2.463h.067A5.63 5.63 0 0 1 53.3 11.41c3.1 0 5.8 1.854 5.8 6.106V27.8h-3.037v-9.44c0-3-1.72-4.116-3.643-4.116-2.53 0-4.453 1.62-4.453 5.33V27.8H44.93V11.815z" fill="none" clip-rule="evenodd"/></clipPath><clipPath id="y"><path d="M61.394 13.77a9.43 9.43 0 0 1 6.342-2.36c4.723 0 6.68 2.564 6.68 5.33v8.16a24.48 24.48 0 0 0 .134 2.9h-2.7q-.1-1.214-.1-2.43h-.067a6.085 6.085 0 0 1-5.6 2.835c-2.968 0-5.532-1.687-5.532-4.79 0-4.114 3.948-5.532 8.8-5.532h2.227v-.67c0-1.654-1.214-3.374-3.81-3.374a6.637 6.637 0 0 0-4.556 1.82zm8.568 6.343c-2.867 0-6.376.506-6.376 3.07 0 1.822 1.35 2.6 3.442 2.6 3.372 0 4.553-2.5 4.553-4.656v-1.013h-1.62z" fill="none" clip-rule="evenodd"/></clipPath><clipPath id="z"><path d="M105.158 20.923c0 2.8 2.6 4.656 5.4 4.656a5.51 5.51 0 0 0 4.387-2.4l2.294 1.754a8.37 8.37 0 0 1-7.086 3.272c-5.06 0-8.233-3.643-8.233-8.4a8.105 8.105 0 0 1 8.267-8.4c5.634 0 7.792 4.318 7.792 8.434v1.08h-12.822zm9.58-2.43c-.067-2.664-1.553-4.654-4.623-4.654a4.93 4.93 0 0 0-4.958 4.654h9.58z" fill="none" clip-rule="evenodd"/></clipPath><clipPath id="A"><path d="M119.8 13.77a9.432 9.432 0 0 1 6.342-2.36c4.723 0 6.68 2.564 6.68 5.33v8.16a24.666 24.666 0 0 0 .135 2.9h-2.7q-.1-1.214-.1-2.43h-.068a6.08 6.08 0 0 1-5.6 2.835c-2.968 0-5.533-1.687-5.533-4.79 0-4.114 3.947-5.532 8.806-5.532h2.225v-.67c0-1.654-1.215-3.374-3.813-3.374a6.637 6.637 0 0 0-4.553 1.82zm8.57 6.343c-2.87 0-6.377.506-6.377 3.07 0 1.822 1.348 2.6 3.44 2.6 3.374 0 4.554-2.5 4.554-4.656v-1.013h-1.618z" fill="none" clip-rule="evenodd"/></clipPath><clipPath id="B"><path fill="none" d="M135.423 2.302h3.04v25.503h-3.04z"/></clipPath><clipPath id="C"><path d="M148.71 14.446h-4.352V21.7c0 1.788 0 3.676 2.293 3.676a4.313 4.313 0 0 0 2.16-.472v2.766a6.874 6.874 0 0 1-2.73.54c-4.69 0-4.758-2.867-4.758-5.43V7.327h3.035v4.487h4.352v2.63z" fill="none" clip-rule="evenodd"/></clipPath><clipPath id="D"><path d="M151.14 2.3h3.038v11.978h.068a5.626 5.626 0 0 1 5.263-2.868c3.1 0 5.8 1.855 5.8 6.106v10.29h-3.036v-9.447c0-3-1.72-4.116-3.644-4.116-2.53 0-4.453 1.62-4.453 5.33v8.23h-3.037V2.3z" fill="none" clip-rule="evenodd"/></clipPath><clipPath id="E"><path fill="none" d="M38.758 5.743h3.035V8.78h-3.035z"/></clipPath><clipPath id="F"><path d="M11.226 2.366h3.13l10.9 25.473h-4.03l-2.555-6.3H6.55l-2.52 6.3H0zm6.19 16.155l-4.75-11.693h-.073L7.773 18.52h9.642z" fill="none" clip-rule="evenodd"/></clipPath><clipPath id="G"><path fill="none" clip-rule="evenodd" d="M80.613 2.503h3.43V13.01H97.16V2.503h3.43v25.302h-3.43v-11.58H84.042v11.58h-3.43V2.503z"/></clipPath></defs><title>Allina</title><g clip-path="url(#a)"><g clip-path="url(#b)"><path fill="#929497" d="M189.696 21.7h11.916v12.458h-11.916z"/></g></g><g clip-path="url(#c)"><g clip-path="url(#b)"><path fill="#929497" d="M191.942 21.7h12.564v12.458h-12.564z"/></g></g><g clip-path="url(#d)"><g clip-path="url(#b)"><path fill="#93c17e" d="M176.887 7.747h13.4V27.48h-13.4z"/></g></g><g clip-path="url(#e)"><g clip-path="url(#b)"><path fill="#93c17e" d="M180.287-.81h22.384v18.556h-22.383z"/></g></g><g clip-path="url(#f)"><g clip-path="url(#b)"><path fill="#93c17e" d="M183.688 4.92h21.03v22.56h-21.03z"/></g></g><g clip-path="url(#g)"><g clip-path="url(#b)"><path fill="#93c17e" d="M187.95 11.044h16.768v20.794H187.95z"/></g></g><g clip-path="url(#h)"><g clip-path="url(#b)"><path fill="#489dd1" d="M180.287 7.747h13.4V27.48h-13.4z"/></g></g><g clip-path="url(#i)"><g clip-path="url(#b)"><path fill="#489dd1" d="M167.904-.81h22.383v18.557h-22.383z"/></g></g><g clip-path="url(#j)"><g clip-path="url(#b)"><path fill="#54957d" d="M178.42 5.2h13.735v15.522H178.42z"/></g></g><g clip-path="url(#k)"><g clip-path="url(#b)"><path fill="#54957d" d="M181.82 10.884h13.065v23.06H181.82z"/></g></g><g clip-path="url(#l)"><g clip-path="url(#b)"><path fill="#489dd1" d="M165.857 4.918h21.03v22.56h-21.03z"/></g></g><g clip-path="url(#m)"><g clip-path="url(#b)"><path fill="#54957d" d="M175.69 10.884h13.065v23.06H175.69z"/></g></g><g clip-path="url(#n)"><g clip-path="url(#b)"><path fill="#489dd1" d="M165.858 11.044h16.768v20.794h-16.768z"/></g></g><g clip-path="url(#o)"><g clip-path="url(#b)"><g style="isolation:isolate"><g clip-path="url(#p)"><g clip-path="url(#q)"><g clip-path="url(#r)"><path fill="#93c17e" d="M177.273-5h16.03v16.03h-16.03z"/></g></g></g></g></g></g><g clip-path="url(#s)"><g clip-path="url(#b)"><g style="isolation:isolate"><g clip-path="url(#t)"><g clip-path="url(#u)"><g clip-path="url(#r)"><path fill="#489dd1" d="M20.938-2.698h13.036v35.503H20.938z"/></g></g><g clip-path="url(#v)"><g clip-path="url(#r)"><path fill="#489dd1" d="M27.347-2.698h13.036v35.503H27.347z"/></g></g><g clip-path="url(#w)"><g clip-path="url(#r)"><path fill="#489dd1" d="M33.757 6.815h13.035v25.99H33.757z"/></g></g><g clip-path="url(#x)"><g clip-path="url(#r)"><path fill="#489dd1" d="M39.93 6.41H64.1v26.394H39.93z"/></g></g><g clip-path="url(#y)"><g clip-path="url(#r)"><path fill="#489dd1" d="M55.55 6.41h24v26.8h-24z"/></g></g><g clip-path="url(#z)"><g clip-path="url(#r)"><path fill="#93c17e" d="M96.918 6.41h26.06v26.8h-26.06z"/></g></g><g clip-path="url(#A)"><g clip-path="url(#r)"><path fill="#93c17e" d="M113.952 6.41h24v26.8h-24z"/></g></g><g clip-path="url(#B)"><g clip-path="url(#r)"><path fill="#93c17e" d="M130.423-2.698h13.04v35.503h-13.04z"/></g></g><g clip-path="url(#C)"><g clip-path="url(#r)"><path fill="#93c17e" d="M136.322 2.328h17.488V33.21h-17.488z"/></g></g><g clip-path="url(#D)"><g clip-path="url(#r)"><path fill="#93c17e" d="M146.14-2.698h24.17v35.503h-24.17z"/></g></g><g clip-path="url(#E)"><g clip-path="url(#r)"><path fill="#489dd1" d="M33.758.743h13.035V13.78H33.758z"/></g></g><g clip-path="url(#F)"><g clip-path="url(#r)"><path fill="#489dd1" d="M-5-2.634h35.258V32.84H-5z"/></g></g><g clip-path="url(#G)"><g clip-path="url(#r)"><path fill="#93c17e" d="M75.613-2.497h29.976v35.3H75.612z"/></g></g></g></g></g></g></svg>
