<?xml version="1.0" encoding="UTF-8" standalone="no"?>
<svg
   xmlns:dc="http://purl.org/dc/elements/1.1/"
   xmlns:cc="http://creativecommons.org/ns#"
   xmlns:rdf="http://www.w3.org/1999/02/22-rdf-syntax-ns#"
   xmlns:svg="http://www.w3.org/2000/svg"
   xmlns="http://www.w3.org/2000/svg"
   style="overflow:visible"
   xml:space="preserve"
   enable-background="new 0 0 250 47.16"
   overflow="visible"
   viewBox="0 0 121.728 47.16"
   height="47.16"
   width="121.728"
   id="Layer_1"
   version="1.1"><metadata
     id="metadata4492"><rdf:RDF><cc:Work
         rdf:about=""><dc:format>image/svg+xml</dc:format><dc:type
           rdf:resource="http://purl.org/dc/dcmitype/StillImage" /><dc:title></dc:title></cc:Work></rdf:RDF></metadata><defs
     id="defs4490" /><path
     style="fill:#ed1b2d"
     id="path4485"
     d="m 97.91,9.12 h 6.911 v 2.361 c 0.742,-0.646 3.138,-2.94 7.563,-2.94 5.207,0 9.344,3.844 9.344,9.88 v 15.668 h -7.3 V 20.363 c 0,-3.365 -1.641,-5.361 -4.611,-5.361 -2.877,0 -4.608,1.882 -4.608,5.361 V 34.089 H 97.91 V 9.12 M 67.188,21.609 c 0,-7.206 5.771,-13.066 13.318,-13.066 7.556,0 13.325,5.86 13.325,13.066 0,7.199 -5.769,13.05 -13.325,13.05 -7.548,10e-4 -13.318,-5.851 -13.318,-13.05 m 7.206,-0.002 c 0,3.451 2.577,6.289 6.163,6.289 3.588,0 6.165,-2.838 6.165,-6.289 0,-3.454 -2.577,-6.287 -6.165,-6.287 -3.586,0 -6.163,2.833 -6.163,6.287 M 24.15,34.089 h 8.559 L 40.403,24.201 45.2,29.06 34.223,42.804 h 8.589 l 7.029,-9.109 13.23,13.465 H 73.44 L 54.425,28.039 69.4,9.12 H 60.806 L 49.739,23.33 44.95,18.516 57.261,3.012 H 48.69 L 40.282,13.83 35.716,9.12 H 25.49 l 10.3,10.399 -11.64,14.57 M 0,0 V 34.089 H 22.451 V 27.728 H 7.638 V 19.583 H 21.786 V 13.417 H 7.638 V 6.351 H 22.451 V 0 H 0" /></svg>